{
	"asset":{
		"generator":"Khronos glTF Blender I/O v4.0.44",
		"version":"2.0"
	},
	"scene":0,
	"scenes":[
		{
			"name":"Scene",
			"nodes":[
				0
			]
		}
	],
	"nodes":[
		{
			"mesh":0,
			"name":"Quad Sphere",
			"translation":[
				0.5177116394042969,
				0,
				-0.010565544478595257
			]
		}
	],
	"materials":[
		{
			"doubleSided":true,
			"name":"Material",
			"pbrMetallicRoughness":{
				"baseColorFactor":[
					0.800000011920929,
					0.800000011920929,
					0.800000011920929,
					1
				],
				"metallicFactor":0,
				"roughnessFactor":0.5
			}
		}
	],
	"meshes":[
		{
			"name":"Quad Sphere",
			"primitives":[
				{
					"attributes":{
						"COLOR_0":0,
						"POSITION":1,
						"NORMAL":2
					},
					"indices":3,
					"material":0
				}
			]
		}
	],
	"accessors":[
		{
			"bufferView":0,
			"componentType":5123,
			"count":98304,
			"normalized":true,
			"type":"VEC4"
		},
		{
			"bufferView":1,
			"componentType":5126,
			"count":98304,
			"max":[
				2.2861135005950928,
				2.2399661540985107,
				2.5365850925445557
			],
			"min":[
				-4.629773139953613,
				-1.925529956817627,
				-2.516420602798462
			],
			"type":"VEC3"
		},
		{
			"bufferView":2,
			"componentType":5126,
			"count":98304,
			"type":"VEC3"
		},
		{
			"bufferView":3,
			"componentType":5125,
			"count":147456,
			"type":"SCALAR"
		}
	],
	"bufferViews":[
		{
			"buffer":0,
			"byteLength":786432,
			"byteOffset":0,
			"target":34962
		},
		{
			"buffer":0,
			"byteLength":1179648,
			"byteOffset":786432,
			"target":34962
		},
		{
			"buffer":0,
			"byteLength":1179648,
			"byteOffset":1966080,
			"target":34962
		},
		{
			"buffer":0,
			"byteLength":589824,
			"byteOffset":3145728,
			"target":34963
		}
	],
	"buffers":[
		{
			"byteLength":3735552,
			"uri":"3DBj%C3%B6rk.bin"
		}
	]
}
